<?xml version="1.0" encoding="UTF-8"?>
<svg xmlns="http://www.w3.org/2000/svg" width="62.5" height="62.5" version="1.1" xmlns:xlink="http://www.w3.org/1999/xlink" viewBox="0 0 62.5 62.5">
  <defs>
    <style>
      .cls-1 {
        fill: url(#_名称未設定グラデーション_5);
      }

      .cls-2 {
        fill: url(#_名称未設定グラデーション_2);
      }

      .cls-3 {
        fill: none;
      }

      .cls-4 {
        fill: url(#_名称未設定グラデーション);
      }

      .cls-5 {
        fill: url(#_名称未設定グラデーション_4);
      }

      .cls-6 {
        fill: url(#_名称未設定グラデーション_3);
      }
    </style>
    <linearGradient id="_名称未設定グラデーション" data-name="名称未設定グラデーション" x1="22.1" y1="4967.3" x2="40.4" y2="4967.3" gradientTransform="translate(0 -4936)" gradientUnits="userSpaceOnUse">
      <stop offset="0" stop-color="#3de9ff"/>
      <stop offset=".2" stop-color="#6fe6eb"/>
      <stop offset=".6" stop-color="#bce3cd"/>
      <stop offset=".9" stop-color="#ece1ba"/>
      <stop offset="1" stop-color="#ffe1b3"/>
    </linearGradient>
    <linearGradient id="_名称未設定グラデーション_2" data-name="名称未設定グラデーション 2" x1="26.6" y1="4943.9" x2="54.5" y2="4971.8" gradientTransform="translate(0 -4936)" gradientUnits="userSpaceOnUse">
      <stop offset="0" stop-color="#c3f8ff"/>
      <stop offset="1" stop-color="#3de9ff"/>
    </linearGradient>
    <linearGradient id="_名称未設定グラデーション_3" data-name="名称未設定グラデーション 3" x1="19.2" y1="4973.6" x2="36" y2="4990.4" gradientTransform="translate(0 -4936)" gradientUnits="userSpaceOnUse">
      <stop offset="0" stop-color="#c3f8ff"/>
      <stop offset="1" stop-color="#3de9ff"/>
    </linearGradient>
    <linearGradient id="_名称未設定グラデーション_4" data-name="名称未設定グラデーション 4" x1="6.3" y1="4963.9" x2="26.6" y2="4963.9" gradientTransform="translate(0 -4936)" gradientUnits="userSpaceOnUse">
      <stop offset="0" stop-color="#ffe1b3"/>
      <stop offset="1" stop-color="#ffc05a"/>
    </linearGradient>
    <linearGradient id="_名称未設定グラデーション_5" data-name="名称未設定グラデーション 5" x1="35.9" y1="4976.4" x2="44.8" y2="4976.4" gradientTransform="translate(0 -4936)" gradientUnits="userSpaceOnUse">
      <stop offset="0" stop-color="#ffe1b3"/>
      <stop offset="1" stop-color="#ffc05a"/>
    </linearGradient>
  </defs>
  <!-- Generator: Adobe Illustrator 28.6.0, SVG Export Plug-In . SVG Version: 1.2.0 Build 709)  -->
  <g>
    <g id="_レイヤー_1" data-name="レイヤー_1">
      <g id="_レイヤー_2">
        <g id="_レイヤー_1-2">
          <g>
            <rect class="cls-3" width="62.5" height="62.5"/>
            <g>
              <path class="cls-4" d="M24.8,24.8c-1.7,1.7-2.7,4-2.7,6.5s1,4.7,2.7,6.5,4,2.7,6.5,2.7,4.7-1,6.5-2.7c3.6-3.6,3.6-9.4,0-12.9-1.7-1.7-4-2.7-6.5-2.7s-4.7,1-6.5,2.7h0Z"/>
              <g>
                <path class="cls-2" d="M42.6,31.2c0,3.8,3,6.8,6.8,6.8s6.8-3,6.8-6.8-3-6.8-6.8-6.8c-6.3,0-11.4-5.1-11.4-11.4s-3-6.8-6.8-6.8-6.8,3-6.8,6.8,3,6.8,6.8,6.8c6.3,0,11.4,5.1,11.4,11.4Z"/>
                <path class="cls-6" d="M31.2,42.6c-4.6,0-8.6-2.8-10.4-6.7-.8,1.3-1.9,2.4-3.1,3.2,4,1.8,6.7,5.8,6.7,10.4s3,6.8,6.8,6.8,6.8-3,6.8-6.8-3-6.8-6.8-6.8h0Z"/>
              </g>
              <g>
                <path class="cls-5" d="M23.4,17.7c-1.8,4-5.8,6.7-10.4,6.7s-6.8,3-6.8,6.8,3,6.8,6.8,6.8,6.8-3,6.8-6.8,2.8-8.6,6.7-10.4c-1.3-.8-2.4-1.9-3.1-3.1Z"/>
                <path class="cls-1" d="M41.6,35.9c-1.1,2.5-3.2,4.6-5.7,5.7,1.3.8,2.4,1.9,3.2,3.2,1.1-2.5,3.2-4.6,5.7-5.7-1.3-.8-2.4-1.9-3.2-3.2Z"/>
              </g>
            </g>
          </g>
        </g>
      </g>
    </g>
  </g>
</svg>