<?xml version="1.0" encoding="UTF-8"?>
<svg xmlns="http://www.w3.org/2000/svg" width="1920" height="1080" version="1.1" xmlns:xlink="http://www.w3.org/1999/xlink" viewBox="0 0 1920 1080">
  <defs>
    <style>
      .cls-1 {
        fill: #3f3f3f;
      }

      .cls-2 {
        fill: url(#_名称未設定グラデーション_2);
      }

      .cls-3 {
        fill: url(#_名称未設定グラデーション);
      }

      .cls-4 {
        fill: #0e9fce;
      }

      .cls-5 {
        fill: #0ecebd;
      }
    </style>
    <radialGradient id="_名称未設定グラデーション" data-name="名称未設定グラデーション" cx="-134.4" cy="-106.8" fx="-134.4" fy="-106.8" r="2333.6" gradientTransform="translate(0 1082) scale(1 -1)" gradientUnits="userSpaceOnUse">
      <stop offset="0" stop-color="#c6f3ef"/>
      <stop offset=".5" stop-color="#fff"/>
      <stop offset=".8" stop-color="#fff"/>
      <stop offset="1" stop-color="#bde5f2"/>
    </radialGradient>
    <linearGradient id="_名称未設定グラデーション_2" data-name="名称未設定グラデーション 2" x1="1330.6" y1="542" x2="1476.9" y2="542" gradientTransform="translate(0 1082) scale(1 -1)" gradientUnits="userSpaceOnUse">
      <stop offset="0" stop-color="#0ecebd"/>
      <stop offset="1" stop-color="#0e9fce"/>
    </linearGradient>
  </defs>
  <!-- Generator: Adobe Illustrator 28.6.0, SVG Export Plug-In . SVG Version: 1.2.0 Build 709)  -->
  <g>
    <g id="_レイヤー_2">
      <g id="_レイヤー_1-2">
        <g>
          <rect class="cls-3" width="1920" height="1080"/>
          <g>
            <g>
              <path class="cls-1" d="M360.5,545.9h-25.8v42.3h-13.3v-96.4c0-1,.8-1.8,1.8-1.8h32.6c25.4,0,42.6,7.2,42.6,27.4s-10.9,25.7-28.6,27.8l30.1,43h-13.4l-26-42.3h0ZM356.9,543.2c21,0,30-5.5,30-25.8s-9.1-24.8-31.2-24.8h-21v50.6h22.2,0Z"/>
              <path class="cls-1" d="M444.7,550.1c0-29.3,17.7-39.9,39.2-39.9s39.2,10.7,39.2,39.9-17.7,39.9-39.2,39.9-39.2-10.7-39.2-39.9h0ZM510.9,550c0-28.5-8.3-37.6-27-37.6s-27,9.3-27,37.6,8.3,37.8,27,37.8,27-9.4,27-37.8Z"/>
              <path class="cls-1" d="M564.1,550.1c0-29.3,17.7-39.9,39.2-39.9s39.2,10.7,39.2,39.9-17.7,39.9-39.2,39.9-39.2-10.7-39.2-39.9ZM630.3,550c0-28.5-8.3-37.6-27-37.6s-27,9.3-27,37.6,8.3,37.8,27,37.8,27-9.4,27-37.8Z"/>
              <path class="cls-1" d="M694.6,490h11v95.6h48.9v2.7h-61.7v-96.4c0-1,.8-1.8,1.8-1.8h0Z"/>
              <path class="cls-1" d="M793.7,550.1c0-29.3,17.7-39.9,39.2-39.9s39.2,10.7,39.2,39.9-17.7,39.9-39.2,39.9-39.2-10.7-39.2-39.9ZM859.9,550c0-28.5-8.3-37.6-27-37.6s-27,9.3-27,37.6,8.3,37.8,27,37.8,27-9.4,27-37.8Z"/>
              <path class="cls-1" d="M986.6,580.2v-70h6.6v79.9h-3.7l-54.9-69.5v69.5h-11.3c-1,0-1.8-.8-1.8-1.8v-78h9.6l55.6,70h0Z"/>
              <path class="cls-1" d="M1051,512c0-1,.8-1.8,1.8-1.8h53v2.2h-43v35.5h39.2v2.2h-39.2v37.9h44.2v2.2h-56.1v-78h0Z"/>
            </g>
            <g>
              <path class="cls-5" d="M1494.8,540c0,30,24.4,54.5,54.5,54.5s54.5-24.4,54.5-54.5-24.4-54.5-54.5-54.5c-50.2,0-91.1-40.8-91.1-91.1s-24.4-54.5-54.5-54.5-54.5,24.4-54.5,54.5,24.4,54.5,54.5,54.5c50.2,0,91.1,40.8,91.1,91.1Z"/>
              <path class="cls-2" d="M1352,488.3c-13.8,13.8-21.4,32.2-21.4,51.7s7.6,37.9,21.4,51.7c13.8,13.8,32.2,21.4,51.7,21.4s37.9-7.6,51.7-21.4c28.5-28.5,28.5-74.9,0-103.5-13.8-13.8-32.2-21.4-51.7-21.4s-37.9,7.6-51.7,21.4h0Z"/>
              <path class="cls-5" d="M1403.8,631c-36.9,0-68.8-22.1-83-53.8-6.2,10.3-14.9,19-25.2,25.2,31.7,14.3,53.8,46.1,53.8,83s24.4,54.5,54.5,54.5,54.5-24.4,54.5-54.5-24.4-54.5-54.5-54.5Z"/>
              <path class="cls-4" d="M1341.3,431.8c-14.3,31.7-46.1,53.8-83,53.8s-54.5,24.4-54.5,54.5,24.4,54.5,54.5,54.5,54.5-24.4,54.5-54.5,22.1-68.8,53.8-83c-10.3-6.2-19-14.9-25.2-25.2Z"/>
              <path class="cls-4" d="M1486.8,577.3c-9.1,20.3-25.5,36.6-45.8,45.8,10.3,6.2,19,14.9,25.2,25.2,9.1-20.3,25.5-36.6,45.8-45.8-10.3-6.2-19-14.9-25.2-25.2Z"/>
            </g>
            <g>
              <path class="cls-1" d="M353.8,634.7h-24.6v25.1h-7.8v-51.7h7.8v23.7h24.6v-23.7h7.8v51.7h-7.8v-25.1h0Z"/>
              <path class="cls-1" d="M381,648v-21.7h7.6v21.7c0,6.4,2.3,8.9,8.7,8.9s5-.5,7.2-1.3v-29.3h7.6v33.5h-7.3v-2.5c-2.5,1.7-6.6,3-10.9,3-7.8,0-12.8-3.3-12.8-12.3h0Z"/>
              <path class="cls-1" d="M430.2,626.3h7.3v2.5c2.5-1.7,6.6-3,10.9-3,7.8,0,12.7,3.3,12.7,12.3v21.7h-7.6v-21.7c0-6.5-2.2-9-8.6-9s-5,.6-7.2,1.3v29.4h-7.6v-33.5h0Z"/>
              <path class="cls-1" d="M502.8,662.2v-4.3c-2.8,1.7-6,2.2-9.5,2.2-9.1,0-15.3-5.7-15.3-17.1s6.4-17.2,15.3-17.2,6.9.6,9.7,2.5v-2h7.1v34c0,11.5-7.7,13.9-18.2,13.9s-6.7-.4-9.5-1v-2.4c2.8.4,5.5.6,8.4.6,7.4,0,11.8-1.3,11.8-9.3h0ZM502.8,656v-26c-2-.7-4.3-1.1-6.5-1.1-6.9,0-10.5,3.4-10.5,13.9s3.6,14.3,10.5,14.3,4.5-.5,6.5-1.1h0Z"/>
              <path class="cls-1" d="M527.2,643.1c0-10.5,6.1-17.3,16.7-17.3s16.7,6.8,16.7,17.3-6.1,17.2-16.7,17.2-16.7-6.6-16.7-17.2ZM552.9,643.1c0-9.7-2.5-14.6-9-14.6s-9,5-9,14.6,2.5,14.6,9,14.6,9-5,9-14.6Z"/>
              <path class="cls-1" d="M577.6,648v-21.7h7.6v21.7c0,6.4,2.3,8.9,8.7,8.9s5-.5,7.2-1.3v-29.3h7.6v33.5h-7.3v-2.5c-2.5,1.7-6.6,3-10.9,3-7.8,0-12.8-3.3-12.8-12.3Z"/>
              <path class="cls-1" d="M624.2,626.3h5.1v-9.7h7.6v9.7h8.8v2.5h-8.8v23.2c0,4.1,1.5,5.3,5.3,5.3s2.2-.1,3.5-.4v2.4c-2,.5-3.8.7-6.6.7-5.6,0-9.8-1.8-9.8-9.5v-21.8h-5.1v-2.5Z"/>
            </g>
          </g>
        </g>
      </g>
    </g>
  </g>
</svg>