<?xml version="1.0" encoding="UTF-8"?>
<svg xmlns="http://www.w3.org/2000/svg" width="172.5" height="62.5" version="1.1" xmlns:xlink="http://www.w3.org/1999/xlink" viewBox="0 0 172.5 62.5">
  <defs>
    <style>
      .cls-1 {
        fill: url(#_名称未設定グラデーション_5);
      }

      .cls-2 {
        fill: #3f3f3f;
      }

      .cls-3 {
        fill: url(#_名称未設定グラデーション_2);
      }

      .cls-4 {
        fill: url(#_名称未設定グラデーション);
      }

      .cls-5 {
        isolation: isolate;
      }

      .cls-6 {
        fill: url(#_名称未設定グラデーション_4);
      }

      .cls-7 {
        fill: url(#_名称未設定グラデーション_3);
      }
    </style>
    <linearGradient id="_名称未設定グラデーション" data-name="名称未設定グラデーション" x1="132.6" y1="4967.3" x2="150.9" y2="4967.3" gradientTransform="translate(0 -4936)" gradientUnits="userSpaceOnUse">
      <stop offset="0" stop-color="#3de9ff"/>
      <stop offset=".2" stop-color="#6fe6eb"/>
      <stop offset=".6" stop-color="#bce3cd"/>
      <stop offset=".9" stop-color="#ece1ba"/>
      <stop offset="1" stop-color="#ffe1b3"/>
    </linearGradient>
    <linearGradient id="_名称未設定グラデーション_2" data-name="名称未設定グラデーション 2" x1="137.2" y1="4943.9" x2="165" y2="4971.8" gradientTransform="translate(0 -4936)" gradientUnits="userSpaceOnUse">
      <stop offset="0" stop-color="#c3f8ff"/>
      <stop offset="1" stop-color="#3de9ff"/>
    </linearGradient>
    <linearGradient id="_名称未設定グラデーション_3" data-name="名称未設定グラデーション 3" x1="129.7" y1="4973.6" x2="146.4" y2="4990.4" gradientTransform="translate(0 -4936)" gradientUnits="userSpaceOnUse">
      <stop offset="0" stop-color="#c3f8ff"/>
      <stop offset="1" stop-color="#3de9ff"/>
    </linearGradient>
    <linearGradient id="_名称未設定グラデーション_4" data-name="名称未設定グラデーション 4" x1="116.7" y1="4963.9" x2="137.1" y2="4963.9" gradientTransform="translate(0 -4936)" gradientUnits="userSpaceOnUse">
      <stop offset="0" stop-color="#ffe1b3"/>
      <stop offset="1" stop-color="#ffc05a"/>
    </linearGradient>
    <linearGradient id="_名称未設定グラデーション_5" data-name="名称未設定グラデーション 5" x1="146.4" y1="4976.4" x2="155.2" y2="4976.4" gradientTransform="translate(0 -4936)" gradientUnits="userSpaceOnUse">
      <stop offset="0" stop-color="#ffe1b3"/>
      <stop offset="1" stop-color="#ffc05a"/>
    </linearGradient>
  </defs>
  <!-- Generator: Adobe Illustrator 28.6.0, SVG Export Plug-In . SVG Version: 1.2.0 Build 709)  -->
  <g>
    <g id="_レイヤー_1" data-name="レイヤー_1">
      <g id="_レイヤー_2">
        <g id="_レイヤー_1-2">
          <g>
            <g>
              <path class="cls-2" d="M11.3,32h-3.2v5.3h-1.7v-12c0-.1,0-.2.2-.2h4.1c3.2,0,5.3.9,5.3,3.4s-1.4,3.2-3.6,3.5l3.8,5.4h-1.7l-3.2-5.3h0ZM10.9,31.6c2.6,0,3.8-.7,3.8-3.2s-1.1-3.1-3.9-3.1h-2.6v6.3h2.8,0Z"/>
              <path class="cls-2" d="M21.8,32.5c0-3.7,2.2-5,4.9-5s4.9,1.3,4.9,5-2.2,5-4.9,5-4.9-1.3-4.9-5ZM30.1,32.5c0-3.6-1-4.7-3.4-4.7s-3.4,1.2-3.4,4.7,1,4.7,3.4,4.7,3.4-1.2,3.4-4.7Z"/>
              <path class="cls-2" d="M36.8,32.5c0-3.7,2.2-5,4.9-5s4.9,1.3,4.9,5-2.2,5-4.9,5-4.9-1.3-4.9-5ZM45,32.5c0-3.6-1-4.7-3.4-4.7s-3.4,1.2-3.4,4.7,1,4.7,3.4,4.7,3.4-1.2,3.4-4.7Z"/>
              <path class="cls-2" d="M53.1,25h1.4v12h6.1v.3h-7.7v-12c0-.1,0-.2.2-.2h0Z"/>
              <path class="cls-2" d="M65.5,32.5c0-3.7,2.2-5,4.9-5s4.9,1.3,4.9,5-2.2,5-4.9,5-4.9-1.3-4.9-5ZM73.7,32.5c0-3.6-1-4.7-3.4-4.7s-3.4,1.2-3.4,4.7,1,4.7,3.4,4.7,3.4-1.2,3.4-4.7Z"/>
              <path class="cls-2" d="M89.6,36.3v-8.8h.8v10h-.5l-6.9-8.7v8.7h-1.4c0,0-.2,0-.2-.2v-9.8h1.2l6.9,8.8h0Z"/>
              <path class="cls-2" d="M97.6,27.7c0-.1,0-.2.2-.2h6.6v.3h-5.4v4.4h4.9v.3h-4.9v4.7h5.5v.3h-7v-9.8h.1Z"/>
            </g>
            <g>
              <path class="cls-4" d="M135.2,24.8c-1.7,1.7-2.7,4-2.7,6.5s.9,4.7,2.7,6.5,4,2.7,6.5,2.7,4.7-1,6.5-2.7c3.6-3.6,3.6-9.4,0-12.9-1.7-1.7-4-2.7-6.5-2.7s-4.7,1-6.5,2.7h0Z"/>
              <g>
                <path class="cls-3" d="M153.1,31.2c0,3.8,3.1,6.8,6.8,6.8s6.8-3,6.8-6.8-3.1-6.8-6.8-6.8c-6.3,0-11.4-5.1-11.4-11.4s-3.1-6.8-6.8-6.8-6.8,3-6.8,6.8,3.1,6.8,6.8,6.8c6.3,0,11.4,5.1,11.4,11.4Z"/>
                <path class="cls-7" d="M141.7,42.6c-4.6,0-8.6-2.8-10.4-6.7-.8,1.3-1.9,2.4-3.1,3.2,4,1.8,6.7,5.8,6.7,10.4s3.1,6.8,6.8,6.8,6.8-3,6.8-6.8-3.1-6.8-6.8-6.8h0Z"/>
              </g>
              <g>
                <path class="cls-6" d="M133.9,17.7c-1.8,4-5.8,6.7-10.4,6.7s-6.8,3-6.8,6.8,3.1,6.8,6.8,6.8,6.8-3,6.8-6.8,2.8-8.6,6.7-10.4c-1.3-.8-2.4-1.9-3.1-3.1h0Z"/>
                <path class="cls-1" d="M152.1,35.9c-1.1,2.5-3.2,4.6-5.7,5.7,1.3.8,2.4,1.9,3.1,3.2,1.1-2.5,3.2-4.6,5.7-5.7-1.3-.8-2.4-1.9-3.1-3.2Z"/>
              </g>
            </g>
            <g class="cls-5">
              <g class="cls-5">
                <g class="cls-5">
                  <path class="cls-2" d="M6.8,40.8v5.4h-.4v-6.5h1l2.3,5.6,2.2-5.6h1v6.5h-1v-5.5l-2.2,5.5h-.7l-2.2-5.4Z"/>
                  <path class="cls-2" d="M14.7,45c0-.8.5-1.3,1.7-1.3h1.1v-.5c0-.8-.5-.9-1.2-.9-.4,0-.7,0-1.1,0v-.3c.4,0,.8-.1,1.3-.1,1.2,0,1.9.3,1.9,1.3v2.9h-.9v-.3c-.3.2-.7.3-1.2.3-1.1,0-1.6-.5-1.6-1.3ZM17.5,45.8v-1.8h-.9c-.8,0-1,.3-1,1s.2,1,.9,1,.8,0,.9-.2Z"/>
                  <path class="cls-2" d="M23.2,46.5v-.5c-.4.2-.8.3-1.2.3-1.1,0-1.9-.7-1.9-2.1s.8-2.2,1.9-2.2.9,0,1.2.3v-.2h.9v4.3c0,1.4-1,1.8-2.3,1.8s-.8,0-1.2-.1v-.3c.4,0,.7,0,1.1,0,.9,0,1.5-.2,1.5-1.2ZM23.2,45.7v-3.3c-.3,0-.5-.1-.8-.1-.9,0-1.3.4-1.3,1.8s.5,1.8,1.3,1.8.6,0,.8-.1Z"/>
                  <path class="cls-2" d="M25.8,45c0-.8.5-1.3,1.7-1.3h1.1v-.5c0-.8-.5-.9-1.2-.9-.4,0-.7,0-1.1,0v-.3c.4,0,.8-.1,1.3-.1,1.2,0,1.9.3,1.9,1.3v2.9h-.9v-.3c-.3.2-.7.3-1.2.3-1.1,0-1.6-.5-1.6-1.3ZM28.6,45.8v-1.8h-.9c-.8,0-1,.3-1,1s.2,1,.9,1,.8,0,.9-.2Z"/>
                  <path class="cls-2" d="M31.1,42h3.4v.3l-2.4,3.6h2.4v.3h-3.5v-.3l2.4-3.6h-2.3v-.3Z"/>
                  <path class="cls-2" d="M36.2,40.2h1v1h-1v-1ZM36.2,42h1v4.2h-1v-4.2Z"/>
                  <path class="cls-2" d="M38.9,42h.9v.3c.3-.2.8-.4,1.4-.4,1,0,1.6.4,1.6,1.5v2.7h-1v-2.7c0-.8-.3-1.1-1.1-1.1s-.6,0-.9.2v3.7h-1v-4.2Z"/>
                  <path class="cls-2" d="M44.5,44.1c0-1.4.9-2.2,2-2.2s1.9.7,1.9,2.1,0,.2,0,.2h-2.9c0,1.3.4,1.6,1.6,1.6s.7,0,1.1,0v.3c-.4,0-.8.1-1.3.1-1.4,0-2.3-.5-2.3-2.2ZM45.5,44h2.1c0-1.2-.2-1.7-1-1.7s-1,.5-1,1.7Z"/>
                </g>
              </g>
            </g>
          </g>
        </g>
      </g>
    </g>
  </g>
</svg>