<?xml version="1.0" encoding="UTF-8"?>
<svg xmlns="http://www.w3.org/2000/svg" width="1920" height="1080" version="1.1" xmlns:xlink="http://www.w3.org/1999/xlink" viewBox="0 0 1920 1080">
  <defs>
    <style>
      .cls-1 {
        fill: url(#_名称未設定グラデーション_5);
      }

      .cls-2 {
        fill: url(#_名称未設定グラデーション_6);
      }

      .cls-3 {
        fill: #3f3f3f;
      }

      .cls-4 {
        fill: url(#_名称未設定グラデーション_2);
      }

      .cls-5 {
        fill: url(#_名称未設定グラデーション);
      }

      .cls-6 {
        fill: #fff;
        isolation: isolate;
        opacity: .8;
      }

      .cls-7 {
        fill: url(#_名称未設定グラデーション_4);
      }

      .cls-8 {
        fill: url(#_名称未設定グラデーション_3);
      }
    </style>
    <radialGradient id="_名称未設定グラデーション" data-name="名称未設定グラデーション" cx="4067.1" cy="3015.1" fx="4067.1" fy="3015.1" r="2333.6" gradientTransform="translate(6121.5 -3123.9) rotate(-180) scale(1 -1)" gradientUnits="userSpaceOnUse">
      <stop offset="0" stop-color="#ffd187"/>
      <stop offset=".5" stop-color="#fff"/>
      <stop offset=".6" stop-color="#fff"/>
      <stop offset="1" stop-color="#3de9ff"/>
    </radialGradient>
    <linearGradient id="_名称未設定グラデーション_2" data-name="名称未設定グラデーション 2" x1="1330.6" y1="542" x2="1476.9" y2="542" gradientTransform="translate(0 1082) scale(1 -1)" gradientUnits="userSpaceOnUse">
      <stop offset="0" stop-color="#3de9ff"/>
      <stop offset=".2" stop-color="#6fe6eb"/>
      <stop offset=".6" stop-color="#bce3cd"/>
      <stop offset=".9" stop-color="#ece1ba"/>
      <stop offset="1" stop-color="#ffe1b3"/>
    </linearGradient>
    <linearGradient id="_名称未設定グラデーション_3" data-name="名称未設定グラデーション 3" x1="1365.3" y1="726" x2="1587.8" y2="503.5" gradientTransform="translate(0 1082) scale(1 -1)" gradientUnits="userSpaceOnUse">
      <stop offset="0" stop-color="#c3f8ff"/>
      <stop offset="1" stop-color="#3de9ff"/>
    </linearGradient>
    <linearGradient id="_名称未設定グラデーション_4" data-name="名称未設定グラデーション 4" x1="1308.1" y1="492.1" x2="1442.3" y2="358" gradientTransform="translate(0 1082) scale(1 -1)" gradientUnits="userSpaceOnUse">
      <stop offset="0" stop-color="#c3f8ff"/>
      <stop offset="1" stop-color="#3de9ff"/>
    </linearGradient>
    <linearGradient id="_名称未設定グラデーション_5" data-name="名称未設定グラデーション 5" x1="1203.8" y1="568.9" x2="1366.5" y2="568.9" gradientTransform="translate(0 1082) scale(1 -1)" gradientUnits="userSpaceOnUse">
      <stop offset="0" stop-color="#ffe1b3"/>
      <stop offset="1" stop-color="#ffc05a"/>
    </linearGradient>
    <linearGradient id="_名称未設定グラデーション_6" data-name="名称未設定グラデーション 6" x1="1441" y1="469.2" x2="1512" y2="469.2" gradientTransform="translate(0 1082) scale(1 -1)" gradientUnits="userSpaceOnUse">
      <stop offset="0" stop-color="#ffe1b3"/>
      <stop offset="1" stop-color="#ffc05a"/>
    </linearGradient>
  </defs>
  <!-- Generator: Adobe Illustrator 28.6.0, SVG Export Plug-In . SVG Version: 1.2.0 Build 709)  -->
  <g>
    <g id="_レイヤー_2">
      <g id="_レイヤー_1-2">
        <rect class="cls-5" width="1920" height="1080"/>
        <rect class="cls-6" width="1920" height="1080"/>
        <g>
          <g>
            <path class="cls-3" d="M360.5,545.9h-25.8v42.3h-13.3v-96.4c0-1,.8-1.8,1.8-1.8h32.6c25.4,0,42.6,7.2,42.6,27.4s-10.9,25.7-28.6,27.8l30.1,43h-13.4l-26-42.3h0ZM356.9,543.2c21,0,30-5.5,30-25.8s-9.1-24.8-31.2-24.8h-21v50.6h22.2,0Z"/>
            <path class="cls-3" d="M444.7,550.1c0-29.3,17.7-39.9,39.2-39.9s39.2,10.7,39.2,39.9-17.7,39.9-39.2,39.9-39.2-10.7-39.2-39.9h0ZM510.9,550c0-28.5-8.3-37.6-27-37.6s-27,9.3-27,37.6,8.3,37.8,27,37.8,27-9.4,27-37.8Z"/>
            <path class="cls-3" d="M564.1,550.1c0-29.3,17.7-39.9,39.2-39.9s39.2,10.7,39.2,39.9-17.7,39.9-39.2,39.9-39.2-10.7-39.2-39.9ZM630.3,550c0-28.5-8.3-37.6-27-37.6s-27,9.3-27,37.6,8.3,37.8,27,37.8,27-9.4,27-37.8Z"/>
            <path class="cls-3" d="M694.6,490h11v95.6h48.9v2.7h-61.7v-96.4c0-1,.8-1.8,1.8-1.8h0Z"/>
            <path class="cls-3" d="M793.7,550.1c0-29.3,17.7-39.9,39.2-39.9s39.2,10.7,39.2,39.9-17.7,39.9-39.2,39.9-39.2-10.7-39.2-39.9ZM859.9,550c0-28.5-8.3-37.6-27-37.6s-27,9.3-27,37.6,8.3,37.8,27,37.8,27-9.4,27-37.8Z"/>
            <path class="cls-3" d="M986.6,580.2v-70h6.6v79.9h-3.7l-54.9-69.5v69.5h-11.3c-1,0-1.8-.8-1.8-1.8v-78h9.6l55.6,70h0Z"/>
            <path class="cls-3" d="M1051,512c0-1,.8-1.8,1.8-1.8h53v2.2h-43v35.5h39.2v2.2h-39.2v37.9h44.2v2.2h-56.1v-78h0Z"/>
          </g>
          <g>
            <path class="cls-4" d="M1352,488.3c-13.8,13.8-21.4,32.2-21.4,51.7s7.6,37.9,21.4,51.7,32.2,21.4,51.7,21.4,37.9-7.6,51.7-21.4c28.5-28.5,28.5-74.9,0-103.5-13.8-13.8-32.2-21.4-51.7-21.4s-37.9,7.6-51.7,21.4h0Z"/>
            <g>
              <path class="cls-8" d="M1494.8,540c0,30,24.4,54.5,54.5,54.5s54.5-24.4,54.5-54.5-24.4-54.5-54.5-54.5c-50.2,0-91.1-40.8-91.1-91.1s-24.4-54.5-54.5-54.5-54.5,24.4-54.5,54.5,24.4,54.5,54.5,54.5c50.2,0,91.1,40.8,91.1,91.1Z"/>
              <path class="cls-7" d="M1403.8,631c-36.9,0-68.8-22.1-83-53.8-6.2,10.3-14.9,19-25.2,25.2,31.7,14.3,53.8,46.1,53.8,83s24.4,54.5,54.5,54.5,54.5-24.4,54.5-54.5-24.4-54.5-54.5-54.5Z"/>
            </g>
            <g>
              <path class="cls-1" d="M1341.3,431.8c-14.3,31.7-46.1,53.8-83,53.8s-54.5,24.4-54.5,54.5,24.4,54.5,54.5,54.5,54.5-24.4,54.5-54.5,22.1-68.8,53.8-83c-10.3-6.2-19-14.9-25.2-25.2Z"/>
              <path class="cls-2" d="M1486.8,577.3c-9.1,20.3-25.5,36.6-45.8,45.8,10.3,6.2,19,14.9,25.2,25.2,9.1-20.3,25.5-36.6,45.8-45.8-10.3-6.2-19-14.9-25.2-25.2Z"/>
            </g>
          </g>
          <g>
            <path class="cls-3" d="M324.4,616.6v43.3h-3v-51.7h7.9l17.9,44.5,17.9-44.5h7.7v51.7h-7.7v-43.6l-17.4,43.6h-5.7l-17.6-43.3Z"/>
            <path class="cls-3" d="M390.6,650.2c0-6.6,4.3-10.2,13.2-10.2h9.1v-3.9c0-6.5-3.6-7.3-9.7-7.4-2.9,0-6,.3-8.5.7v-2.4c3-.6,6.5-1,10.4-1,9.5,0,15,2.4,15,10.6v23.2h-7.1v-2c-2.2,1.4-5.5,2.5-9.8,2.5-8.5,0-12.5-4.1-12.5-10.2ZM412.8,656.3v-14h-7c-6,0-7.6,2.1-7.6,7.6s1.7,7.7,7.4,7.7,6-.8,7.2-1.3Z"/>
            <path class="cls-3" d="M461.7,662.2v-4.3c-2.8,1.7-6,2.2-9.5,2.2-9.1,0-15.3-5.7-15.3-17.1s6.4-17.2,15.3-17.2,6.9.6,9.7,2.5v-2h7.1v34c0,11.5-7.7,13.9-18.2,13.9s-6.7-.4-9.5-1v-2.4c2.8.4,5.5.6,8.4.6,7.4,0,11.8-1.3,11.8-9.3h0ZM461.7,656v-26c-2-.7-4.3-1.1-6.5-1.1-6.9,0-10.5,3.4-10.5,13.9s3.6,14.3,10.5,14.3,4.5-.5,6.5-1.1h0Z"/>
            <path class="cls-3" d="M485.6,650.2c0-6.6,4.3-10.2,13.2-10.2h9.1v-3.9c0-6.5-3.6-7.3-9.7-7.4-2.9,0-6,.3-8.5.7v-2.4c3-.6,6.5-1,10.4-1,9.5,0,15,2.4,15,10.6v23.2h-7.1v-2c-2.2,1.4-5.5,2.5-9.8,2.5-8.5,0-12.5-4.1-12.5-10.2h0ZM507.9,656.3v-14h-7c-6,0-7.6,2.1-7.6,7.6s1.7,7.7,7.4,7.7,6-.8,7.2-1.3Z"/>
            <path class="cls-3" d="M531.7,626.3h26.7v2.5l-18.9,28.4h19.5v2.6h-28v-2.6l18.8-28.4h-18.1v-2.5Z"/>
            <path class="cls-3" d="M575.2,612.4h7.6v7.6h-7.6v-7.6ZM575.2,626.3h7.6v33.5h-7.6v-33.5h0Z"/>
            <path class="cls-3" d="M600.9,626.3h7.3v2.5c2.5-1.7,6.6-3,10.9-3,7.8,0,12.7,3.3,12.7,12.3v21.7h-7.6v-21.7c0-6.5-2.2-9-8.6-9s-5,.6-7.2,1.3v29.4h-7.6v-33.5h0Z"/>
            <path class="cls-3" d="M648.7,643.1c0-11.5,6.9-17.2,15.8-17.2s15.4,5.4,15.4,16.7,0,1.3-.1,2h-23.5c.2,10.6,3.4,13,12.8,13s5.9-.2,8.8-.8v2.4c-3.2.8-6.4,1.1-10.6,1.1-10.9,0-18.6-3.7-18.6-17.2ZM656.3,642h16.3c-.3-9.5-1.8-13.5-8-13.5s-8.1,4-8.3,13.5Z"/>
          </g>
        </g>
      </g>
    </g>
  </g>
</svg>